<svg width="200" height="200" viewBox="0 0 200 200" fill="none" xmlns="http://www.w3.org/2000/svg">
<path d="M21.2981 12.4324C23.5606 12.4324 25.2333 10.2636 24.425 8.12621C23.8132 6.50818 22.0007 5.69094 20.3755 6.29917C16.7288 7.68785 17.9429 12.4324 21.2981 12.4324Z" fill="#31A9FE"/>
<path d="M121.912 110.449C123.975 110.748 125.405 109.406 125.638 107.83C125.89 106.119 124.702 104.528 122.985 104.276C120.907 103.979 119.493 105.329 119.261 106.894C119.008 108.605 120.195 110.197 121.912 110.449Z" fill="#31A9FE"/>
<path d="M199.988 84.8357C199.267 60.6067 135.611 50.8589 99.7241 65.7986C88.0711 70.6503 81.5674 77.3984 81.3461 84.8357C81.3296 85.0835 81.3355 95.1467 81.3355 133.387C45.6033 139.94 6.2868 128.778 6.2868 115.043V97.7718C21.0962 111.004 52.9824 113.436 72.9254 111.423C74.6527 111.25 75.9112 109.713 75.7364 107.993C75.5611 106.272 74.0165 105.015 72.2924 105.193C38.4493 108.606 6.2872 97.8967 6.2872 85.5735V68.3016C20.8596 81.323 52.2103 84.0432 72.9258 81.9535C74.6531 81.7797 75.9116 80.2435 75.7367 78.5229C75.5615 76.8023 74.0169 75.5455 72.2928 75.7232C38.4501 79.1347 6.28759 68.4319 6.28759 56.1033V38.7166C27.5987 57.7581 91.0663 57.7581 112.377 38.7166V51.4758C112.377 53.205 113.785 54.607 115.521 54.607C117.257 54.607 118.664 53.205 118.664 51.4758C118.664 48.644 118.664 29.3423 118.664 26.5183C118.664 5.03024 68.8283 -5.61732 31.4686 2.98402C29.7771 3.37346 28.7228 5.0553 29.1138 6.74026C29.5048 8.42523 31.1928 9.47417 32.8843 9.08591C82.9945 -2.45444 139.769 22.7187 97.8514 40.1699C56.0712 57.5624 -12.4659 37.9671 11.1033 18.4387C12.4381 17.333 12.62 15.3588 11.51 14.0289C10.3996 12.6997 8.41764 12.5185 7.08287 13.6242C2.4495 17.4634 0 21.9222 0 26.5183V144.513C0 165.212 45.511 175.407 81.3355 169.215V173.477C81.3355 181.069 87.866 187.969 99.7241 192.906C135.87 207.954 199.999 197.935 199.999 173.477C199.999 171.63 200.005 85.0831 199.988 84.8357ZM102.148 71.5764C123.337 62.7559 158.001 62.757 179.186 71.5764C214.812 86.408 179.299 107.165 135.293 105.38C133.56 105.305 132.095 106.653 132.024 108.381C131.954 110.109 133.303 111.567 135.037 111.637C153.397 112.381 180.504 109.227 193.713 97.4258V114.537C193.713 119.369 188.418 124.345 179.186 128.188C157.998 137.009 123.334 137.007 102.148 128.188C92.917 124.345 87.6223 119.369 87.6223 114.537V97.4403C92.093 101.433 98.838 104.847 107.52 107.386C109.186 107.871 110.932 106.922 111.421 105.264C111.911 103.604 110.957 101.864 109.291 101.377C85.488 94.416 78.8208 81.2885 102.148 71.5764ZM6.2868 144.513V127.242C21.5822 140.908 56.6755 144.008 81.3355 139.746V162.857C45.6033 169.41 6.2868 158.247 6.2868 144.513ZM179.186 187.128C157.998 195.949 123.334 195.948 102.148 187.128C92.917 183.285 87.6223 178.309 87.6223 173.477C87.6223 171.414 87.6223 156.254 87.6223 156.205C106.311 172.904 157.932 175.23 184.988 161.907C186.544 161.141 187.183 159.263 186.413 157.713C185.644 156.162 183.758 155.527 182.202 156.293C162.036 166.224 124.834 167.102 102.148 157.658C92.9166 153.815 87.6219 148.839 87.6219 144.007C87.6219 114.15 87.6219 139.174 87.6219 126.735C108.884 145.733 172.279 145.885 193.712 126.735V173.477C193.712 178.309 188.418 183.285 179.186 187.128Z" fill="#31A9FE"/>
</svg>
