<svg width="200" height="200" viewBox="0 0 200 200" fill="none" xmlns="http://www.w3.org/2000/svg">
<path d="M123.438 135.156C121.281 135.156 119.531 136.906 119.531 139.062C119.531 141.219 121.281 142.969 123.438 142.969C125.594 142.969 127.344 141.219 127.344 139.062C127.344 136.906 125.594 135.156 123.438 135.156Z" fill="#31A9FE"/>
<path d="M180.469 0H19.5312C8.7616 0 0 8.7616 0 19.5312V139.062C0 149.832 8.7616 158.594 19.5312 158.594H80.4688V176.562H76.5625C71.347 176.562 66.4444 178.595 62.7533 182.285C59.0637 185.976 57.0312 190.878 57.0312 196.094C57.0312 198.251 58.7799 200 60.9375 200H139.062C141.22 200 142.969 198.251 142.969 196.094C142.969 185.324 134.207 176.562 123.438 176.562H119.531V158.594H180.469C191.238 158.594 200 149.832 200 139.062V19.5312C200 8.7616 191.238 0 180.469 0ZM19.5312 7.8125H180.469C186.931 7.8125 192.188 13.0692 192.188 19.5312V119.531H174.219V29.6875C174.219 27.5299 172.47 25.7812 170.312 25.7812H139.062C136.905 25.7812 135.156 27.5299 135.156 29.6875V119.531H115.604C115.562 115.491 115.457 111.508 115.289 107.645C114.606 91.7358 113.048 81.0791 112.238 76.3916C120.297 70.4575 122.498 59.4589 117.57 50.914L104.031 27.4643C103.333 26.2558 102.043 25.5112 100.648 25.5112C99.2523 25.5112 97.963 26.2558 97.2656 27.4643L83.7204 50.9155C79.0756 58.9722 80.722 69.4077 88.0188 75.5661C87.1735 80.2399 85.4675 91.2781 84.726 107.637C84.5505 111.542 84.4391 115.527 84.3964 119.531H64.8438V60.9375C64.8438 60.318 64.6973 59.7534 64.4577 59.2514C64.447 59.2316 64.4409 59.2102 64.4318 59.1904L48.8068 27.9404C48.1445 26.6174 46.7926 25.7812 45.3125 25.7812C43.8324 25.7812 42.4805 26.6174 41.8182 27.9404L26.1932 59.1904C26.1841 59.2102 26.178 59.2316 26.1688 59.2514C25.9247 59.758 25.7812 60.3317 25.7812 60.9375V119.531H7.8125V19.5312C7.8125 13.0692 13.0692 7.8125 19.5312 7.8125ZM142.969 119.531V33.5938H166.406V41.4062H162.5C160.342 41.4062 158.594 43.1549 158.594 45.3125C158.594 47.4701 160.342 49.2188 162.5 49.2188H166.406V60.9375H162.5C160.342 60.9375 158.594 62.6862 158.594 64.8438C158.594 67.0013 160.342 68.75 162.5 68.75H166.406V80.4688H162.5C160.342 80.4688 158.594 82.2174 158.594 84.375C158.594 86.5326 160.342 88.2812 162.5 88.2812H166.406V103.906H162.5C160.342 103.906 158.594 105.655 158.594 107.812C158.594 109.97 160.342 111.719 162.5 111.719H166.406V119.531H142.969ZM100.648 80.1987C102.068 80.1987 103.481 80.0354 104.863 79.7302C105.588 84.3765 106.653 92.598 107.283 103.906H92.7429C93.4036 92.6056 94.519 84.256 95.2896 79.4525C97.02 79.9454 98.822 80.1987 100.648 80.1987ZM100.648 72.3862C91.7206 72.3862 85.9634 62.6694 90.4877 54.8203L100.648 37.2299L110.803 54.8187C115.311 62.6358 109.633 72.3862 100.648 72.3862ZM92.3843 111.719H107.626C107.709 114.285 107.765 116.896 107.793 119.531H92.2089C92.2379 116.913 92.2974 114.302 92.3843 111.719ZM49.2188 119.531V64.8438H57.0312V119.531H49.2188ZM33.5938 119.531V64.8438H41.4062V119.531H33.5938ZM36.0077 57.0312L45.3125 38.4216L54.6173 57.0312H36.0077ZM134.486 192.188H65.509C66.0828 190.559 67.0197 189.067 68.277 187.808C70.4926 185.594 73.4344 184.375 76.5625 184.375H123.438C128.531 184.375 132.875 187.64 134.486 192.188ZM111.719 176.562H88.2812V158.594H111.719V176.562ZM180.469 150.781H19.5312C13.0692 150.781 7.8125 145.525 7.8125 139.062V127.344H192.188V139.062C192.188 145.525 186.931 150.781 180.469 150.781Z" fill="#31A9FE"/>
<path d="M107.812 135.156H84.375C82.2174 135.156 80.4688 136.905 80.4688 139.062C80.4688 141.22 82.2174 142.969 84.375 142.969H107.812C109.97 142.969 111.719 141.22 111.719 139.062C111.719 136.905 109.97 135.156 107.812 135.156Z" fill="#31A9FE"/>
</svg>
