<?xml version="1.0" ?><svg data-name="Adobe Folder 2020" id="Adobe_Folder_2020" viewBox="0 0 240 210" xmlns="http://www.w3.org/2000/svg"><defs><style>.cls-1{fill:#001d26;}.cls-2,.cls-3{fill:#00c8ff;}.cls-3{fill-rule:evenodd;}.cls-4{fill:#caf1fe;}</style></defs><title/><g data-name="Photoshop Express" id="Photoshop_Express"><path class="cls-1" d="M232.5,52.5a15,15,0,0,0-15-15H7.5v150a15,15,0,0,0,15,15h195a15,15,0,0,0,15-15Z"/><path class="cls-2" d="M217.5,30H137.63A3.41,3.41,0,0,1,135,28.88L111.75,5.63A18.2,18.2,0,0,0,98.63,0H22.5A22.57,22.57,0,0,0,0,22.5v165A22.57,22.57,0,0,0,22.5,210h195A22.57,22.57,0,0,0,240,187.5V52.5A22.57,22.57,0,0,0,217.5,30Zm15,157.5a15,15,0,0,1-15,15H22.5a15,15,0,0,1-15-15V37.5h210a15,15,0,0,1,15,15Z" data-name="Path 4" id="Path_4"/><path class="cls-3" d="M98.55,138.89c0,.28.13.42.41.42h5.6a.37.37,0,0,0,.42-.42v-15c1,0,1.47.07,2.94.07,8.54,0,15.54-4.13,15.54-13.65,0-7.35-4.55-13-15-13-3.71,0-7.21.07-9.59.21-.28,0-.35.21-.35.42Zm6.5-35.56c.7-.07,2.1-.14,3.64-.14,5,0,8.12,2.45,8.12,7.21,0,5.95-4.2,7.49-8.68,7.49-1.47,0-2.17,0-3.08-.07ZM145.51,115a.37.37,0,0,0,.56-.35v-5.18a.89.89,0,0,0-.35-.77,18.72,18.72,0,0,0-6.92-1c-6.58,0-10.37,4.06-10.37,8.89,0,4.34,2.24,6.93,7.57,9.52,3.77,2,4.68,3.15,4.68,4.55,0,1.68-1.26,2.94-4.2,2.94a15.12,15.12,0,0,1-7.91-2.24c-.27-.21-.42-.07-.42.28v5.53a.68.68,0,0,0,.28.63,18.29,18.29,0,0,0,8,1.61c6.23,0,10.85-3.22,10.85-9.24,0-4.06-1.89-6.79-7.77-9.66-4-2-4.69-3-4.69-4.34s1-2.73,4-2.73A14.36,14.36,0,0,1,145.51,115Z"/><path class="cls-4" d="M120,172.14a9.6,9.6,0,0,1-6.72-2.73l-42.7-42.7a9.44,9.44,0,0,1,0-13.37l42.7-42.7a9.42,9.42,0,0,1,13.37,0h0l42.7,42.7a9.4,9.4,0,0,1,0,13.37l-42.7,42.7A9.32,9.32,0,0,1,120,172.14Zm0-102.2a7.38,7.38,0,0,0-5.25,2.17l-42.7,42.7a7.39,7.39,0,0,0,0,10.43l42.7,42.7a7.39,7.39,0,0,0,10.43,0l42.7-42.7a7.39,7.39,0,0,0,0-10.43l-42.7-42.7A7.09,7.09,0,0,0,120,69.94Z"/></g></svg>